<?xml version="1.0" encoding="UTF-8"?>
<svg version="1.1" xmlns="http://www.w3.org/2000/svg" width="1024" height="1024">
<path d="M0 0 C3.68822573 0.45616744 7.3827177 0.57150668 11.09408569 0.71429443 C12.77916543 0.78606541 14.46422328 0.85835155 16.14926147 0.93109131 C17.020849 0.96807129 17.89243652 1.00505127 18.79043579 1.04315186 C41.09382544 2.00577921 63.30259729 3.5859478 85.39096069 6.95257568 C88.71316294 7.33161889 91.9602583 7.33896383 95.30111694 7.28460693 C95.30111694 7.94460693 95.30111694 8.60460693 95.30111694 9.28460693 C95.98536743 9.32706543 96.66961792 9.36952393 97.37460327 9.41326904 C106.00911877 10.0322179 114.47500344 11.33025645 122.98861694 12.84710693 C123.7177832 12.97610382 124.44694946 13.10510071 125.19821167 13.23800659 C158.10525079 19.10574312 191.7814233 27.20068012 222.30502319 41.08148193 C223.29373413 41.47851318 224.28244507 41.87554443 225.30111694 42.28460693 C225.96111694 41.95460693 226.62111694 41.62460693 227.30111694 41.28460693 C227.30111694 42.27460693 227.30111694 43.26460693 227.30111694 44.28460693 C228.03016235 44.40465088 228.75920776 44.52469482 229.51034546 44.64837646 C232.28910062 45.28186749 234.42211559 46.17291559 236.95346069 47.46429443 C237.81262085 47.8987085 238.67178101 48.33312256 239.55697632 48.78070068 C240.88438843 49.46325928 240.88438843 49.46325928 242.23861694 50.15960693 C243.11969116 50.60691162 244.00076538 51.05421631 244.90853882 51.51507568 C246.61284151 52.38063166 248.31524324 53.2499436 250.01547241 54.12347412 C251.9507263 55.10660459 253.90708782 56.04801478 255.86752319 56.97991943 C258.30111694 58.28460693 258.30111694 58.28460693 259.30111694 60.28460693 C260.9641113 60.96038203 262.63156335 61.62520341 264.30111694 62.28460693 C287.76441726 76.60461543 310.67658932 95.11410861 328.30111694 116.28460693 C328.7261853 116.78524658 329.15125366 117.28588623 329.58920288 117.80169678 C344.63677293 135.59129143 355.87111966 155.60165324 364.07455444 177.37054443 C365.11138922 180.34648446 365.11138922 180.34648446 367.30111694 182.28460693 C367.30111694 183.60460693 367.30111694 184.92460693 367.30111694 186.28460693 C367.59916043 187.79117417 367.94423991 189.28886446 368.32455444 190.77679443 C368.54015015 191.63925781 368.75574585 192.50172119 368.97787476 193.39031982 C369.20829468 194.30418457 369.4387146 195.21804932 369.67611694 196.15960693 C383.02394819 251.00239189 368.93927221 308.52896598 340.08139038 356.30389404 C338.83795263 358.30860514 337.57487943 360.299036 336.30111694 362.28460693 C335.84801147 362.99455811 335.39490601 363.70450928 334.92807007 364.43597412 C321.24427257 385.73126667 305.87470661 405.19506856 288.64096069 423.69866943 C287.08710515 425.41595218 285.58651461 427.18303813 284.14486694 428.99554443 C282.10079681 431.53330947 279.86573369 433.28295484 277.30111694 435.28460693 C275.06719095 437.4597454 272.8889224 439.68235909 270.71127319 441.91351318 C266.41863035 446.26455933 261.94672953 450.31486106 257.30111694 454.28460693 C256.36525757 455.09800537 255.42939819 455.91140381 254.46517944 456.74945068 C246.05194539 464.01729572 237.30243079 470.76226455 228.30111694 477.28460693 C227.6846228 477.73271729 227.06812866 478.18082764 226.43295288 478.64251709 C167.95785787 520.81896857 100.41794136 543.05386702 30.30111694 556.28460693 C30.30111694 557.27460693 30.30111694 558.26460693 30.30111694 559.28460693 C29.64111694 559.61460693 28.98111694 559.94460693 28.30111694 560.28460693 C28.30897217 561.29877686 28.30897217 561.29877686 28.31698608 562.33343506 C28.50230635 590.99004753 27.87037517 619.6349935 27.30111694 648.28460693 C28.06424194 648.07835693 28.82736694 647.87210693 29.61361694 647.65960693 C32.30111694 647.28460693 32.30111694 647.28460693 35.30111694 649.28460693 C38.08926213 649.9154324 40.84337834 650.45999528 43.65658569 650.94866943 C45.39575384 651.26467364 47.13484573 651.58109779 48.87387085 651.89788818 C49.7895282 652.06240479 50.70518555 652.22692139 51.64859009 652.39642334 C97.06046862 660.60220174 145.28849437 670.5905535 181.30111694 701.28460693 C182.4593396 702.26880615 182.4593396 702.26880615 183.64096069 703.27288818 C197.07731834 715.69819317 202.92444526 731.92384925 204.52377319 749.76898193 C205.3858896 772.10904183 194.55254232 792.63541527 179.80892944 808.6864624 C170.36924139 818.69167581 159.75884247 826.72153846 148.30111694 834.28460693 C147.36960815 834.90529053 147.36960815 834.90529053 146.41928101 835.53851318 C138.77005531 840.57428806 130.8246809 844.57551699 122.42611694 848.22210693 C121.55825562 848.60004395 120.69039429 848.97798096 119.79623413 849.36737061 C114.35023439 851.65183297 109.10088719 853.16566136 103.30111694 854.28460693 C103.30111694 853.62460693 103.30111694 852.96460693 103.30111694 852.28460693 C103.90955444 851.97909912 104.51799194 851.67359131 105.14486694 851.35882568 C136.97646044 834.74086143 167.51783948 808.09397111 179.61361694 773.53460693 C181.77351859 763.32225643 181.25291487 752.55112936 176.30111694 743.28460693 C172.87805998 738.09324092 168.86029851 733.51018985 164.30111694 729.28460693 C163.78678101 728.77671631 163.27244507 728.26882568 162.74252319 727.74554443 C131.01692515 697.86207789 79.50399026 690.76176031 38.30111694 683.28460693 C34.67111694 682.62460693 31.04111694 681.96460693 27.30111694 681.28460693 C27.30111694 694.15460693 27.30111694 707.02460693 27.30111694 720.28460693 C27.96111694 720.61460693 28.62111694 720.94460693 29.30111694 721.28460693 C29.50424194 723.19085693 29.50424194 723.19085693 29.55111694 725.78460693 C31.61632137 753.61051915 53.4163526 779.4727917 73.30111694 797.28460693 C88.47348641 809.96354512 107.26757914 821.70581137 126.30111694 827.28460693 C125.97111694 828.27460693 125.64111694 829.26460693 125.30111694 830.28460693 C121.01111694 830.28460693 116.72111694 830.28460693 112.30111694 830.28460693 C112.30111694 830.61460693 112.30111694 830.94460693 112.30111694 831.28460693 C110.32111694 831.28460693 108.34111694 831.28460693 106.30111694 831.28460693 C106.30111694 830.95460693 106.30111694 830.62460693 106.30111694 830.28460693 C38.98111694 829.95460693 -28.33888306 829.62460693 -97.69888306 829.28460693 C-97.69888306 828.62460693 -97.69888306 827.96460693 -97.69888306 827.28460693 C-96.98087524 827.03968506 -96.26286743 826.79476318 -95.52310181 826.54241943 C-80.88481378 821.2558646 -66.85905214 814.0434788 -54.69888306 804.28460693 C-53.79009399 803.58851318 -52.88130493 802.89241943 -51.94497681 802.17523193 C-45.2017075 796.88565768 -36.61436332 790.11556746 -32.69888306 782.28460693 C-32.03888306 782.28460693 -31.37888306 782.28460693 -30.69888306 782.28460693 C-30.45525024 781.75609131 -30.21161743 781.22757568 -29.96060181 780.68304443 C-28.67467698 778.23859291 -27.20861464 775.96593039 -25.67861938 773.668396 C-18.88304707 763.42884298 -13.40087791 752.90596916 -9.38638306 741.28460693 C-9.02250488 740.25448486 -9.02250488 740.25448486 -8.65127563 739.20355225 C-4.26791618 725.83500315 -4.31937982 711.82109012 -4.07388306 697.90960693 C-4.03559485 696.09448627 -3.99653734 694.27938166 -3.95669556 692.46429443 C-3.86190929 688.07119952 -3.77746236 683.67802039 -3.69888306 679.28460693 C-4.33825806 679.14023193 -4.97763306 678.99585693 -5.63638306 678.84710693 C-7.69888306 678.28460693 -7.69888306 678.28460693 -8.69888306 677.28460693 C-10.77570376 676.90103028 -12.86293526 676.57365444 -14.95278931 676.26898193 C-16.28323827 676.07088113 -17.61363995 675.87246249 -18.94400024 675.67376709 C-19.99944031 675.51802216 -19.99944031 675.51802216 -21.07620239 675.35913086 C-125.31721304 659.87816741 -125.31721304 659.87816741 -151.53872681 626.97601318 C-160.64253962 614.63871082 -163.79443792 601.14629783 -162.28872681 585.88616943 C-159.145193 566.69187694 -148.25403357 550.32121527 -132.53482056 539.00726318 C-129.31409908 536.96590566 -126.05408054 535.09578496 -122.69888306 533.28460693 C-121.59802368 532.68003662 -120.49716431 532.07546631 -119.36294556 531.45257568 C-95.34684576 518.84000154 -68.44392423 514.11787157 -41.69888306 511.28460693 C-40.44945923 511.14925537 -39.2000354 511.01390381 -37.91275024 510.87445068 C-33.86344086 510.4374068 -29.81278379 510.01427977 -25.76138306 509.59710693 C-23.84942139 509.39951782 -23.84942139 509.39951782 -21.89883423 509.19793701 C-20.6894519 509.0782959 -19.48006958 508.95865479 -18.23403931 508.83538818 C-17.16548706 508.72879883 -16.09693481 508.62220947 -14.9960022 508.51239014 C-11.23848671 508.25280021 -7.46535482 508.28460693 -3.69888306 508.28460693 C-3.69888306 482.87460693 -3.69888306 457.46460693 -3.69888306 431.28460693 C-5.01888306 431.28460693 -6.33888306 431.28460693 -7.69888306 431.28460693 C-7.69888306 430.29460693 -7.69888306 429.30460693 -7.69888306 428.28460693 C-8.33165161 428.18438232 -8.96442017 428.08415771 -9.61636353 427.980896 C-27.09434093 425.19276504 -44.31499892 422.1800207 -61.22012329 416.85906982 C-64.58847582 415.81377569 -67.12751669 415.28460693 -70.69888306 415.28460693 C-70.69888306 414.62460693 -70.69888306 413.96460693 -70.69888306 413.28460693 C-72.64021118 412.91142334 -72.64021118 412.91142334 -74.62075806 412.53070068 C-79.71177415 411.39307121 -84.22993581 409.53811491 -88.94888306 407.34710693 C-89.80224243 406.95595703 -90.65560181 406.56480713 -91.53482056 406.1618042 C-105.79392433 399.5402069 -119.95398188 392.55024312 -132.69888306 383.28460693 C-133.65407837 382.60140381 -134.60927368 381.91820068 -135.59341431 381.21429443 C-146.28199772 373.39747983 -156.5418583 364.86318271 -165.69888306 355.28460693 C-166.88997681 354.09544678 -166.88997681 354.09544678 -168.10513306 352.88226318 C-177.56308088 343.41007146 -185.42858227 333.15599728 -193.23184204 322.30828857 C-194.24038985 320.91706661 -195.26542328 319.53769423 -196.30386353 318.16864014 C-197.90266503 316.00939071 -199.12751354 313.78306292 -200.38638306 311.40960693 C-202.67172988 307.14287568 -205.05866273 302.95716302 -207.51138306 298.78460693 C-224.47193834 269.30844342 -235.11095626 236.25740838 -244.8866272 203.82928467 C-245.61311074 201.32777122 -245.61311074 201.32777122 -246.69888306 199.28460693 C-246.20388306 198.29460693 -246.20388306 198.29460693 -245.69888306 197.28460693 C-76.40888306 197.28460693 92.88111694 197.28460693 267.30111694 197.28460693 C266.55416691 204.00715721 265.63794701 209.6441482 263.86361694 216.03460693 C263.60846313 216.96128174 263.35330933 217.88795654 263.09042358 218.8427124 C260.74584891 227.12366604 258.03991638 235.27464282 255.23861694 243.40960693 C254.82748657 244.60553467 254.4163562 245.8014624 253.99276733 247.03363037 C249.80885288 259.00004201 244.85563423 270.48958635 239.36361694 281.90960693 C238.86410522 282.96406006 238.36459351 284.01851318 237.84994507 285.10491943 C207.928757 347.49542255 154.14015477 391.56376431 89.59408569 414.47088623 C71.80476617 420.57480184 53.21160962 425.04105654 34.62045288 427.85931396 C32.28606152 428.1760682 32.28606152 428.1760682 30.30111694 429.28460693 C29.97111694 429.94460693 29.64111694 430.60460693 29.30111694 431.28460693 C28.97111694 431.28460693 28.64111694 431.28460693 28.30111694 431.28460693 C28.30111694 455.37460693 28.30111694 479.46460693 28.30111694 504.28460693 C61.05529881 496.79793679 93.69746203 489.09391205 124.00033569 474.31585693 C126.30111694 473.28460693 126.30111694 473.28460693 128.30111694 473.28460693 C128.63111694 472.62460693 128.96111694 471.96460693 129.30111694 471.28460693 C130.93961043 470.55003686 132.58258046 469.82399947 134.24545288 469.14642334 C172.69463814 453.02699056 211.44999533 420.66226798 237.20736694 387.93695068 C239.43783626 385.11141212 241.7703864 382.39214002 244.11361694 379.65960693 C250.32950076 372.21018339 255.8130926 364.27763092 261.30111694 356.28460693 C261.74487671 355.64619873 262.18863647 355.00779053 262.64584351 354.35003662 C275.534848 335.793388 293.31636509 310.13339696 296.30111694 287.28460693 C296.96111694 287.28460693 297.62111694 287.28460693 298.30111694 287.28460693 C308.01457683 250.64957804 310.1818771 215.45943053 291.30111694 181.28460693 C285.91296809 172.06699222 279.64055654 164.03948651 272.30111694 156.28460693 C271.19206503 154.97623232 270.08769217 153.66387339 268.98861694 152.34710693 C214.73718239 90.69774949 115.88549808 75.56135689 38.34042358 70.51507568 C16.99223135 69.18264858 -4.31627455 69.05068123 -25.69888306 69.28460693 C-26.02888306 69.94460693 -26.35888306 70.60460693 -26.69888306 71.28460693 C-27.37983032 71.27228027 -28.06077759 71.25995361 -28.76235962 71.24725342 C-59.77931906 70.92851264 -90.85421963 80.83248965 -120.16421509 90.16253662 C-123.21110505 91.12976319 -126.26341381 92.07512885 -129.31997681 93.01116943 C-146.73721525 98.23830525 -146.73721525 98.23830525 -159.74185181 110.17523193 C-162.01207215 115.1789829 -162.33692326 119.40593299 -160.57388306 124.59710693 C-156.21928702 130.83869459 -150.99215929 132.95290039 -143.69888306 134.28460693 C-136.84250248 134.80967215 -129.94374327 134.61952767 -123.07388306 134.53460693 C-121.13378249 134.51798671 -119.19367821 134.50179404 -117.25357056 134.48602295 C-113.45094928 134.45130211 -109.64871948 134.40479864 -105.84634399 134.34954834 C-101.53844986 134.28886405 -97.23369073 134.28406313 -92.92544556 134.29632568 C-81.85266626 134.23239796 -74.44065952 133.67602768 -65.69888306 126.28460693 C-46.9400014 113.29576744 -26.20187351 107.96564508 -3.52407837 111.63665771 C10.29389686 114.20606432 24.06995036 118.62116059 35.30111694 127.28460693 C36.09775757 127.89175537 36.89439819 128.49890381 37.71517944 129.12445068 C43.01537512 133.26779251 47.99762064 137.67642672 52.87924194 142.30413818 C59.19499389 147.4687934 66.22081323 148.47269182 74.03939819 149.91351318 C75.89240791 150.26626564 75.89240791 150.26626564 77.78285217 150.62614441 C81.05795505 151.24819237 84.33428827 151.86266027 87.61154175 152.47320557 C92.21348514 153.33265027 96.81262004 154.20704179 101.4122467 155.07878113 C103.85594941 155.5410157 106.30011236 156.00082583 108.74479675 156.45783997 C114.95924938 157.62405289 121.13813086 158.87074783 127.30111694 160.28460693 C127.30111694 160.94460693 127.30111694 161.60460693 127.30111694 162.28460693 C114.62385232 162.94371251 101.9971477 163.44830934 89.30111694 163.28460693 C88.97111694 163.94460693 88.64111694 164.60460693 88.30111694 165.28460693 C87.97111694 164.95460693 87.64111694 164.62460693 87.30111694 164.28460693 C82.69354519 164.18038752 78.08865312 164.46671357 73.48861694 164.72210693 C72.44761841 164.77954071 72.44761841 164.77954071 71.3855896 164.83813477 C58.59615057 165.61123977 47.08932274 168.5129113 34.85189819 172.31976318 C5.75637667 181.31693495 -26.68097175 181.59856434 -56.88638306 182.90960693 C-58.26500605 182.97122419 -59.6436172 183.03310689 -61.0222168 183.09524536 C-69.076239 183.45791919 -77.13078615 183.80449661 -85.18606567 184.13818359 C-88.34447812 184.26983442 -91.50265578 184.40591248 -94.66079712 184.54388428 C-131.2757588 186.12099065 -177.9504903 187.70083211 -208.13638306 162.90960693 C-210.69888306 160.28460693 -210.69888306 160.28460693 -210.69888306 158.28460693 C-211.68888306 157.95460693 -212.67888306 157.62460693 -213.69888306 157.28460693 C-223.50760351 141.26880556 -224.97671939 121.2093562 -221.63638306 103.03460693 C-215.19741894 77.6364707 -197.86987645 57.07750358 -176.69888306 42.28460693 C-175.44978149 41.40288818 -175.44978149 41.40288818 -174.17544556 40.50335693 C-130.89741835 11.56032297 -77.23294973 3.29251087 -26.25064087 0.93035889 C-25.47291824 0.89369614 -24.69519562 0.85703339 -23.89390564 0.81925964 C-22.43620157 0.75159967 -20.97834858 0.68704165 -19.52033997 0.626297 C-16.37931316 0.48233257 -13.36738721 0.22770364 -10.26553345 -0.30474854 C-6.62387385 -0.72402921 -3.60653459 -0.47560059 0 0 Z M-184.69888306 226.28460693 C-183.46762469 229.43193185 -182.22662641 232.57533306 -180.98403931 235.71820068 C-180.64070557 236.5961731 -180.29737183 237.47414551 -179.94363403 238.37872314 C-171.63752265 259.32519949 -159.078652 279.78804979 -143.69888306 296.28460693 C-143.03888306 296.28460693 -142.37888306 296.28460693 -141.69888306 296.28460693 C-141.48747681 296.82859131 -141.27607056 297.37257568 -141.05825806 297.93304443 C-139.20291597 301.14257299 -136.66353975 303.43876737 -133.94888306 305.90960693 C-133.37541138 306.43377197 -132.8019397 306.95793701 -132.21109009 307.49798584 C-122.93621858 315.81243422 -112.82990324 322.6790572 -101.69888306 328.28460693 C-100.71017212 328.79765381 -99.72146118 329.31070068 -98.70278931 329.83929443 C-92.48848738 333.02165032 -86.21962925 335.79836055 -79.69888306 338.28460693 C-78.84165649 338.67132568 -77.98442993 339.05804443 -77.10122681 339.45648193 C-74.60238928 340.59029542 -74.60238928 340.59029542 -71.69888306 339.28460693 C-72.42849243 338.56144287 -73.15810181 337.83827881 -73.90982056 337.09320068 C-103.14350009 307.65480351 -125.92523894 272.03576962 -133.90200806 231.01116943 C-134.29906219 227.50322384 -134.29906219 227.50322384 -135.69888306 226.28460693 C-137.23371276 226.19141244 -138.77280388 226.16714893 -140.31045532 226.17108154 C-141.29139664 226.17115707 -142.27233795 226.1712326 -143.28300476 226.17131042 C-144.34965866 226.17647171 -145.41631256 226.181633 -146.51528931 226.18695068 C-147.60148056 226.18836563 -148.68767181 226.18978058 -149.80677795 226.1912384 C-153.29167381 226.19685645 -156.77650647 226.20941201 -160.26138306 226.22210693 C-162.61750192 226.22711961 -164.97362179 226.23168292 -167.32974243 226.23577881 C-173.1194777 226.24683174 -178.90917587 226.26358742 -184.69888306 226.28460693 Z M-10.78945923 560.47479248 C-11.61352264 560.54220642 -12.43758606 560.60962036 -13.28662109 560.67907715 C-14.6257103 560.79899017 -14.6257103 560.79899017 -15.99185181 560.92132568 C-16.92212189 561.0005426 -17.85239197 561.07975952 -18.81085205 561.16137695 C-21.83686197 561.42299309 -24.8616562 561.69607003 -27.88638306 561.97210693 C-29.42327286 562.11073654 -29.42327286 562.11073654 -30.99121094 562.25216675 C-68.41101165 565.17411507 -68.41101165 565.17411507 -102.69888306 579.28460693 C-103.64763306 579.86210693 -104.59638306 580.43960693 -105.57388306 581.03460693 C-109.98755968 585.7079116 -112.96549234 591.48162222 -113.19888306 597.97210693 C-112.64483065 606.06979596 -108.49316869 611.90812558 -102.69888306 617.28460693 C-85.76520223 630.10011493 -61.93044679 634.11649228 -41.53799438 638.02484131 C-38.86866445 638.53801329 -36.20276275 639.06688189 -33.53677368 639.59710693 C-18.38913997 643.597113 -18.38913997 643.597113 -3.69888306 642.28460693 C-3.69888306 615.55460693 -3.69888306 588.82460693 -3.69888306 561.28460693 C-6.58787076 560.32161103 -7.85602547 560.22551592 -10.78945923 560.47479248 Z M10.30111694 754.28460693 C9.80482788 755.30038818 9.30853882 756.31616943 8.79721069 757.36273193 C0.63148007 773.96773502 -8.49321747 788.68934058 -21.01138306 802.34710693 C-21.74844482 803.15136108 -21.74844482 803.15136108 -22.50039673 803.97186279 C-25.37101368 807.03954504 -28.35414334 809.74406693 -31.69888306 812.28460693 C-31.36888306 812.94460693 -31.03888306 813.60460693 -30.69888306 814.28460693 C12.36611694 813.78960693 12.36611694 813.78960693 56.30111694 813.28460693 C56.6495177 810.03872825 56.6495177 810.03872825 53.77377319 807.68304443 C52.6433749 806.66814776 51.5061917 805.66077548 50.36361694 804.65960693 C49.15563213 803.56821352 47.94860352 802.47576085 46.74252319 801.38226318 C45.85331177 800.58199707 45.85331177 800.58199707 44.94613647 799.76556396 C32.09354431 788.19479756 22.07906773 774.63059203 14.00814819 759.38226318 C12.49042238 756.28856561 12.49042238 756.28856561 10.30111694 754.28460693 Z " fill="#FEFEFE" transform="translate(439.6988830566406,48.71539306640625)"/>
<path d="M0 0 C5.75 0.875 5.75 0.875 8 2 C7.67 2.99 7.34 3.98 7 5 C2.71 5 -1.58 5 -6 5 C-6 5.33 -6 5.66 -6 6 C-7.98 6 -9.96 6 -12 6 C-12 5.67 -12 5.34 -12 5 C-79.32 4.67 -146.64 4.34 -216 4 C-216 3.34 -216 2.68 -216 2 C-214.02 1.67 -212.04 1.34 -210 1 C-210 1.33 -210 1.66 -210 2 C-105.06 2.495 -105.06 2.495 2 3 C2 2.34 2 1.68 2 1 C1.01 0.505 1.01 0.505 0 0 Z " fill="#E1E2E2" transform="translate(558,874)"/>
<path d="M0 0 C0.66 0.33 1.32 0.66 2 1 C1.34 1.66 0.68 2.32 0 3 C0.66 3.66 1.32 4.32 2 5 C0.23141309 5.67260351 -1.53996016 6.33788395 -3.3125 7 C-4.29863281 7.37125 -5.28476562 7.7425 -6.30078125 8.125 C-9 9 -9 9 -12 9 C-12 8.34 -12 7.68 -12 7 C-11.21753906 6.57847656 -10.43507813 6.15695312 -9.62890625 5.72265625 C-8.61699219 5.17480469 -7.60507812 4.62695312 -6.5625 4.0625 C-5.55316406 3.51722656 -4.54382813 2.97195313 -3.50390625 2.41015625 C-1.13329507 1.22300532 -1.13329507 1.22300532 0 0 Z " fill="#CFD0D1" transform="translate(555,894)"/>
<path d="M0 0 C5.75 0.875 5.75 0.875 8 2 C7.67 2.99 7.34 3.98 7 5 C2.71 5 -1.58 5 -6 5 C-6 5.33 -6 5.66 -6 6 C-7.98 6 -9.96 6 -12 6 C-12 5.01 -12 4.02 -12 3 C-7.38 3 -2.76 3 2 3 C2 2.34 2 1.68 2 1 C1.34 0.67 0.68 0.34 0 0 Z " fill="#D7D9D9" transform="translate(558,874)"/>
<path d="M0 0 C-1.875 4.875 -1.875 4.875 -3 6 C-4.51928038 6.07179964 -6.04167482 6.08392007 -7.5625 6.0625 C-8.38878906 6.05347656 -9.21507812 6.04445313 -10.06640625 6.03515625 C-10.70449219 6.02355469 -11.34257812 6.01195312 -12 6 C-11.01 5.67 -10.02 5.34 -9 5 C-9 4.34 -9 3.68 -9 3 C-2.25 0 -2.25 0 0 0 Z " fill="#E5E6E6" transform="translate(357,871)"/>
<path d="M0 0 C5.75 0.875 5.75 0.875 8 2 C7.67 2.99 7.34 3.98 7 5 C5.35 4.67 3.7 4.34 2 4 C2 3.01 2 2.02 2 1 C1.34 0.67 0.68 0.34 0 0 Z " fill="#DFDFDF" transform="translate(558,874)"/>
<path d="M0 0 C0.66 0.66 1.32 1.32 2 2 C1.01 3.485 1.01 3.485 0 5 C0 3.35 0 1.7 0 0 Z " fill="#FCFDFD" transform="translate(468,731)"/>
<path d="M0 0 C0.33 0 0.66 0 1 0 C1 1.65 1 3.3 1 5 C0.67 5 0.34 5 0 5 C0 3.35 0 1.7 0 0 Z " fill="#FCFDFD" transform="translate(434,675)"/>
<path d="M0 0 C1.65 0 3.3 0 5 0 C5 0.33 5 0.66 5 1 C3.35 1 1.7 1 0 1 C0 0.67 0 0.34 0 0 Z " fill="#FBFCFC" transform="translate(417,48)"/>
<path d="M0 0 C4 1 4 1 4 1 Z " fill="#DFE0E0" transform="translate(539,879)"/>
<path d="M0 0 C1 4 1 4 1 4 Z " fill="#FAFBFB" transform="translate(434,747)"/>
<path d="M0 0 C1 4 1 4 1 4 Z " fill="#FCFDFC" transform="translate(434,667)"/>
<path d="M0 0 C1 4 1 4 1 4 Z " fill="#FCFDFC" transform="translate(434,610)"/>
<path d="M0 0 C1 4 1 4 1 4 Z " fill="#FCFDFC" transform="translate(434,552)"/>
<path d="M0 0 C1 4 1 4 1 4 Z " fill="#FCFDFC" transform="translate(434,539)"/>
<path d="M0 0 C1 4 1 4 1 4 Z " fill="#FCFCFC" transform="translate(434,522)"/>
<path d="M0 0 C4 1 4 1 4 1 Z " fill="#FCFDFD" transform="translate(506,244)"/>
<path d="M0 0 C4 1 4 1 4 1 Z " fill="#FDFEFE" transform="translate(466,244)"/>
<path d="M0 0 C4 1 4 1 4 1 Z " fill="#FAFBFB" transform="translate(467,119)"/>
<path d="M0 0 C4 1 4 1 4 1 Z " fill="#FBFBFC" transform="translate(419,119)"/>
<path d="M0 0 C3 1 3 1 3 1 Z " fill="#E7E7E6" transform="translate(523,879)"/>
<path d="M0 0 C3 1 3 1 3 1 Z " fill="#EAEBEA" transform="translate(467,879)"/>
<path d="" fill="#DCDDDD" transform="translate(0,0)"/>
<path d="" fill="#FBFCFE" transform="translate(0,0)"/>
<path d="" fill="#FAFBFC" transform="translate(0,0)"/>
<path d="" fill="#FAFBFC" transform="translate(0,0)"/>
<path d="M0 0 C3 1 3 1 3 1 Z " fill="#FAFBFB" transform="translate(427,726)"/>
<path d="M0 0 C3 1 3 1 3 1 Z " fill="#F0F1F2" transform="translate(376,717)"/>
<path d="" fill="#FDFEFE" transform="translate(0,0)"/>
<path d="" fill="#E7E7E8" transform="translate(0,0)"/>
<path d="" fill="#E6E7E8" transform="translate(0,0)"/>
<path d="M0 0 C0.33 0.66 0.66 1.32 1 2 C0.34 1.67 -0.32 1.34 -1 1 C-0.67 0.67 -0.34 0.34 0 0 Z " fill="#D1D3D2" transform="translate(193,250)"/>
<path d="M0 0 C3 1 3 1 3 1 Z " fill="#FBFAFB" transform="translate(363,127)"/>
<path d="M0 0 C3 1 3 1 3 1 Z " fill="#FBFBFB" transform="translate(528,125)"/>
<path d="M0 0 C2 1 2 1 2 1 Z " fill="#ECEAEA" transform="translate(500,879)"/>
<path d="M0 0 C2 1 2 1 2 1 Z " fill="#EBEBEB" transform="translate(484,879)"/>
<path d="M0 0 C2 1 2 1 2 1 Z " fill="#E8E8E8" transform="translate(428,879)"/>
<path d="M0 0 C2 1 2 1 2 1 Z " fill="#E8E9E8" transform="translate(424,879)"/>
<path d="M0 0 C2 1 2 1 2 1 Z " fill="#E7E5E6" transform="translate(412,879)"/>
<path d="M0 0 C2 1 2 1 2 1 Z " fill="#E6E7E6" transform="translate(408,879)"/>
<path d="M0 0 C2 1 2 1 2 1 Z " fill="#E7E4E5" transform="translate(404,879)"/>
<path d="M0 0 C2 1 2 1 2 1 Z " fill="#DFDFDD" transform="translate(389,879)"/>
<path d="" fill="#EAEAEA" transform="translate(0,0)"/>
<path d="" fill="#FBFCFB" transform="translate(0,0)"/>
<path d="" fill="#FBFCFC" transform="translate(0,0)"/>
<path d="" fill="#FCFCFC" transform="translate(0,0)"/>
<path d="M0 0 C2 1 2 1 2 1 Z " fill="#FAFBFC" transform="translate(432,771)"/>
<path d="" fill="#FCFEFE" transform="translate(0,0)"/>
<path d="" fill="#F8F9FA" transform="translate(0,0)"/>
<path d="M0 0 C2 1 2 1 2 1 Z " fill="#F9FAF9" transform="translate(524,742)"/>
<path d="M0 0 C2 1 2 1 2 1 Z " fill="#FAFCFA" transform="translate(480,733)"/>
<path d="M0 0 C2 1 2 1 2 1 Z " fill="#F8FAF9" transform="translate(412,724)"/>
<path d="M0 0 C2 1 2 1 2 1 Z " fill="#E6E8E8" transform="translate(347,710)"/>
<path d="" fill="#FDFDFF" transform="translate(0,0)"/>
<path d="" fill="#FBFDFD" transform="translate(0,0)"/>
<path d="" fill="#FCFEFD" transform="translate(0,0)"/>
<path d="" fill="#FCFCFD" transform="translate(0,0)"/>
<path d="" fill="#D7D9DA" transform="translate(0,0)"/>
<path d="" fill="#FDFDFE" transform="translate(0,0)"/>
<path d="" fill="#FDFEFE" transform="translate(0,0)"/>
<path d="M0 0 C2 1 2 1 2 1 Z " fill="#F9FAF9" transform="translate(385,560)"/>
<path d="" fill="#FCFBFD" transform="translate(0,0)"/>
<path d="" fill="#FCFCFC" transform="translate(0,0)"/>
<path d="M0 0 C2 1 2 1 2 1 Z " fill="#E8E8E9" transform="translate(289,420)"/>
<path d="M0 0 C2 1 2 1 2 1 Z " fill="#E5E7E8" transform="translate(259,390)"/>
<path d="M0 0 C2 1 2 1 2 1 Z " fill="#E4E6E6" transform="translate(252,382)"/>
<path d="M0 0 C2 1 2 1 2 1 Z " fill="#E5E6E7" transform="translate(236,358)"/>
<path d="" fill="#E8E8E9" transform="translate(0,0)"/>
<path d="" fill="#FDFDFD" transform="translate(0,0)"/>
<path d="" fill="#E9E9EA" transform="translate(0,0)"/>
<path d="" fill="#EAEBEC" transform="translate(0,0)"/>
<path d="" fill="#FBFCFE" transform="translate(0,0)"/>
<path d="" fill="#E7E8E9" transform="translate(0,0)"/>
<path d="" fill="#E6E6E6" transform="translate(0,0)"/>
<path d="" fill="#FBFDFD" transform="translate(0,0)"/>
<path d="" fill="#E7E6E6" transform="translate(0,0)"/>
<path d="" fill="#FBFCFD" transform="translate(0,0)"/>
<path d="M0 0 C2 1 2 1 2 1 Z " fill="#FAFBFB" transform="translate(700,244)"/>
<path d="M0 0 C2 1 2 1 2 1 Z " fill="#FAFCFB" transform="translate(684,244)"/>
<path d="M0 0 C2 1 2 1 2 1 Z " fill="#FAFAFA" transform="translate(604,244)"/>
<path d="M0 0 C2 1 2 1 2 1 Z " fill="#F9FBFC" transform="translate(580,244)"/>
<path d="M0 0 C2 1 2 1 2 1 Z " fill="#FAFBFB" transform="translate(575,244)"/>
<path d="M0 0 C2 1 2 1 2 1 Z " fill="#F9FCFB" transform="translate(572,244)"/>
<path d="M0 0 C2 1 2 1 2 1 Z " fill="#FAFBFB" transform="translate(556,244)"/>
<path d="M0 0 C2 1 2 1 2 1 Z " fill="#FCFEFE" transform="translate(524,244)"/>
<path d="M0 0 C2 1 2 1 2 1 Z " fill="#FDFEFF" transform="translate(484,244)"/>
<path d="M0 0 C2 1 2 1 2 1 Z " fill="#FDFEFF" transform="translate(476,244)"/>
<path d="M0 0 C2 1 2 1 2 1 Z " fill="#FDFEFF" transform="translate(460,244)"/>
<path d="M0 0 C2 1 2 1 2 1 Z " fill="#FDFEFF" transform="translate(444,244)"/>
<path d="M0 0 C2 1 2 1 2 1 Z " fill="#FEFEFF" transform="translate(428,244)"/>
<path d="M0 0 C2 1 2 1 2 1 Z " fill="#FDFEFE" transform="translate(420,244)"/>
<path d="M0 0 C2 1 2 1 2 1 Z " fill="#FDFEFE" transform="translate(396,244)"/>
<path d="M0 0 C2 1 2 1 2 1 Z " fill="#FCFEFF" transform="translate(348,244)"/>
<path d="M0 0 C2 1 2 1 2 1 Z " fill="#FDFEFF" transform="translate(340,244)"/>
<path d="M0 0 C2 1 2 1 2 1 Z " fill="#FDFEFE" transform="translate(300,244)"/>
<path d="M0 0 C2 1 2 1 2 1 Z " fill="#FCFEFE" transform="translate(276,244)"/>
<path d="M0 0 C2 1 2 1 2 1 Z " fill="#FCFDFF" transform="translate(260,244)"/>
<path d="M0 0 C2 1 2 1 2 1 Z " fill="#FCFDFE" transform="translate(255,244)"/>
<path d="M0 0 C2 1 2 1 2 1 Z " fill="#FBFCFC" transform="translate(244,244)"/>
<path d="M0 0 C2 1 2 1 2 1 Z " fill="#EEEFF0" transform="translate(212,244)"/>
<path d="" fill="#E7E7E7" transform="translate(0,0)"/>
<path d="M0 0 C2 1 2 1 2 1 Z " fill="#FCFCFB" transform="translate(404,231)"/>
<path d="M0 0 C2 1 2 1 2 1 Z " fill="#FCFDFE" transform="translate(275,230)"/>
<path d="M0 0 C2 1 2 1 2 1 Z " fill="#F9F9FB" transform="translate(240,219)"/>
<path d="M0 0 C2 1 2 1 2 1 Z " fill="#F7F7F8" transform="translate(501,215)"/>
<path d="M0 0 C2 1 2 1 2 1 Z " fill="#EDF0F0" transform="translate(549,212)"/>
<path d="" fill="#E4E5E5" transform="translate(0,0)"/>
<path d="M0 0 C2 1 2 1 2 1 Z " fill="#F7F8F8" transform="translate(648,159)"/>
<path d="" fill="#F8F9F9" transform="translate(0,0)"/>
<path d="M0 0 C2 1 2 1 2 1 Z " fill="#F5F7F7" transform="translate(608,143)"/>
<path d="M0 0 C2 1 2 1 2 1 Z " fill="#F8F8F9" transform="translate(576,134)"/>
<path d="M0 0 C2 1 2 1 2 1 Z " fill="#FBFDFE" transform="translate(368,126)"/>
<path d="M0 0 C2 1 2 1 2 1 Z " fill="#FCFCFD" transform="translate(514,123)"/>
<path d="M0 0 C2 1 2 1 2 1 Z " fill="#FCFBFB" transform="translate(460,119)"/>
<path d="M0 0 C2 1 2 1 2 1 Z " fill="#FBFBFC" transform="translate(416,119)"/>
<path d="M0 0 C2 1 2 1 2 1 Z " fill="#E7E9E8" transform="translate(685,99)"/>
<path d="M0 0 C2 1 2 1 2 1 Z " fill="#F5F6F5" transform="translate(345,56)"/>
<path d="M0 0 C2 1 2 1 2 1 Z " fill="#FBFBFB" transform="translate(413,48)"/>
<path d="" fill="#000000" transform="translate(0,0)"/>
<path d="" fill="#1F1F1E" transform="translate(0,0)"/>
<path d="" fill="#B1B3B4" transform="translate(0,0)"/>
<path d="" fill="#BFC0C1" transform="translate(0,0)"/>
<path d="" fill="#BDBFC0" transform="translate(0,0)"/>
<path d="" fill="#C8C8CA" transform="translate(0,0)"/>
<path d="" fill="#C3C5C6" transform="translate(0,0)"/>
<path d="" fill="#D3D4D5" transform="translate(0,0)"/>
<path d="" fill="#DDDFDD" transform="translate(0,0)"/>
<path d="" fill="#E2E3E2" transform="translate(0,0)"/>
<path d="" fill="#E6E7E8" transform="translate(0,0)"/>
<path d="" fill="#EAE9EC" transform="translate(0,0)"/>
<path d="" fill="#EBEAEC" transform="translate(0,0)"/>
<path d="" fill="#EAECEE" transform="translate(0,0)"/>
<path d="" fill="#ECEAEC" transform="translate(0,0)"/>
<path d="" fill="#EBEDEB" transform="translate(0,0)"/>
<path d="" fill="#EDECEC" transform="translate(0,0)"/>
<path d="" fill="#E8EAEA" transform="translate(0,0)"/>
<path d="" fill="#E9ECEC" transform="translate(0,0)"/>
<path d="" fill="#EBECEC" transform="translate(0,0)"/>
<path d="" fill="#ECEBEA" transform="translate(0,0)"/>
<path d="" fill="#EAEBEA" transform="translate(0,0)"/>
<path d="" fill="#E9E8E9" transform="translate(0,0)"/>
<path d="" fill="#E9E9EA" transform="translate(0,0)"/>
<path d="" fill="#E7E9E7" transform="translate(0,0)"/>
<path d="" fill="#E7E8E9" transform="translate(0,0)"/>
<path d="" fill="#E5E7E5" transform="translate(0,0)"/>
<path d="" fill="#E4E3E3" transform="translate(0,0)"/>
<path d="" fill="#E3E4E3" transform="translate(0,0)"/>
<path d="" fill="#DDDEDE" transform="translate(0,0)"/>
<path d="" fill="#DBDBD9" transform="translate(0,0)"/>
<path d="" fill="#ACB0AE" transform="translate(0,0)"/>
<path d="" fill="#ABABAF" transform="translate(0,0)"/>
<path d="" fill="#E0DFE0" transform="translate(0,0)"/>
<path d="" fill="#DEDEDE" transform="translate(0,0)"/>
<path d="" fill="#D9DEDA" transform="translate(0,0)"/>
<path d="" fill="#E5E4E6" transform="translate(0,0)"/>
<path d="" fill="#E6E6E7" transform="translate(0,0)"/>
<path d="" fill="#D1D1D2" transform="translate(0,0)"/>
<path d="" fill="#FCFAFC" transform="translate(0,0)"/>
<path d="" fill="#F8F8F8" transform="translate(0,0)"/>
<path d="" fill="#F1F3F1" transform="translate(0,0)"/>
<path d="" fill="#F2F4F2" transform="translate(0,0)"/>
<path d="" fill="#F5F9F9" transform="translate(0,0)"/>
<path d="" fill="#DBDCDC" transform="translate(0,0)"/>
<path d="" fill="#F3F2F3" transform="translate(0,0)"/>
<path d="" fill="#F0F0F1" transform="translate(0,0)"/>
<path d="" fill="#F0F1F1" transform="translate(0,0)"/>
<path d="" fill="#F2F2F3" transform="translate(0,0)"/>
<path d="" fill="#D9DADB" transform="translate(0,0)"/>
<path d="" fill="#F8FBFD" transform="translate(0,0)"/>
<path d="" fill="#F5F6F6" transform="translate(0,0)"/>
<path d="" fill="#F1F2F2" transform="translate(0,0)"/>
<path d="" fill="#FAF9FB" transform="translate(0,0)"/>
<path d="" fill="#F7F9FA" transform="translate(0,0)"/>
<path d="" fill="#FBFDFD" transform="translate(0,0)"/>
<path d="" fill="#F9FAFB" transform="translate(0,0)"/>
<path d="" fill="#DADCDD" transform="translate(0,0)"/>
<path d="" fill="#F6F8FA" transform="translate(0,0)"/>
<path d="" fill="#FBFCFB" transform="translate(0,0)"/>
<path d="" fill="#F8F8FA" transform="translate(0,0)"/>
<path d="" fill="#DBDBDB" transform="translate(0,0)"/>
<path d="" fill="#F7F8F8" transform="translate(0,0)"/>
<path d="" fill="#F8F9F9" transform="translate(0,0)"/>
<path d="" fill="#F6F9F8" transform="translate(0,0)"/>
<path d="" fill="#F9F8F8" transform="translate(0,0)"/>
<path d="" fill="#FDFDFE" transform="translate(0,0)"/>
<path d="" fill="#F8F9FA" transform="translate(0,0)"/>
<path d="" fill="#FAFBFB" transform="translate(0,0)"/>
<path d="" fill="#F9FBFA" transform="translate(0,0)"/>
<path d="" fill="#F8F9F8" transform="translate(0,0)"/>
<path d="" fill="#FCFAFC" transform="translate(0,0)"/>
<path d="" fill="#FDFDFE" transform="translate(0,0)"/>
<path d="" fill="#FDFCFC" transform="translate(0,0)"/>
<path d="" fill="#FAFCFA" transform="translate(0,0)"/>
<path d="" fill="#FCFDFD" transform="translate(0,0)"/>
<path d="" fill="#FEFCFD" transform="translate(0,0)"/>
<path d="" fill="#FCFDFB" transform="translate(0,0)"/>
<path d="" fill="#FBF9FB" transform="translate(0,0)"/>
<path d="" fill="#FAFCFC" transform="translate(0,0)"/>
<path d="" fill="#FBFCFC" transform="translate(0,0)"/>
<path d="" fill="#F8F9FA" transform="translate(0,0)"/>
<path d="" fill="#F0F0EF" transform="translate(0,0)"/>
<path d="" fill="#EDEFF0" transform="translate(0,0)"/>
<path d="" fill="#F0F3F2" transform="translate(0,0)"/>
<path d="" fill="#E5E7E7" transform="translate(0,0)"/>
<path d="" fill="#E4E5E6" transform="translate(0,0)"/>
<path d="" fill="#F8F6F9" transform="translate(0,0)"/>
<path d="" fill="#F7F7F8" transform="translate(0,0)"/>
<path d="" fill="#E0E0E0" transform="translate(0,0)"/>
<path d="" fill="#E0E2E2" transform="translate(0,0)"/>
<path d="" fill="#FBFCFD" transform="translate(0,0)"/>
<path d="" fill="#DAD8DC" transform="translate(0,0)"/>
<path d="" fill="#FCFDFC" transform="translate(0,0)"/>
<path d="" fill="#FAFAFB" transform="translate(0,0)"/>
<path d="" fill="#FCFEFE" transform="translate(0,0)"/>
<path d="" fill="#FBFEFC" transform="translate(0,0)"/>
<path d="" fill="#FBFBFC" transform="translate(0,0)"/>
<path d="" fill="#D9DBDB" transform="translate(0,0)"/>
<path d="" fill="#D7D8D9" transform="translate(0,0)"/>
<path d="" fill="#FDFDFD" transform="translate(0,0)"/>
<path d="" fill="#FDFDFC" transform="translate(0,0)"/>
<path d="" fill="#FCFDFC" transform="translate(0,0)"/>
<path d="" fill="#D7D9DA" transform="translate(0,0)"/>
<path d="" fill="#FEFEFF" transform="translate(0,0)"/>
<path d="" fill="#DBDDDE" transform="translate(0,0)"/>
<path d="" fill="#FFFDFE" transform="translate(0,0)"/>
<path d="" fill="#FFFCFE" transform="translate(0,0)"/>
<path d="" fill="#000000" transform="translate(0,0)"/>
<path d="" fill="#E1E0DF" transform="translate(0,0)"/>
<path d="" fill="#DEDEDE" transform="translate(0,0)"/>
<path d="" fill="#FCFEFF" transform="translate(0,0)"/>
<path d="" fill="#FEFDFD" transform="translate(0,0)"/>
<path d="" fill="#FCFCFE" transform="translate(0,0)"/>
<path d="" fill="#FCFFFD" transform="translate(0,0)"/>
<path d="" fill="#DDDEDF" transform="translate(0,0)"/>
<path d="" fill="#FCFAFB" transform="translate(0,0)"/>
<path d="" fill="#FAFBFA" transform="translate(0,0)"/>
<path d="" fill="#E1E3E5" transform="translate(0,0)"/>
<path d="" fill="#F5F6F6" transform="translate(0,0)"/>
<path d="" fill="#F3F4F3" transform="translate(0,0)"/>
<path d="" fill="#EBEBEC" transform="translate(0,0)"/>
<path d="" fill="#EEEFEF" transform="translate(0,0)"/>
<path d="" fill="#EEEFEF" transform="translate(0,0)"/>
<path d="" fill="#EFEFEE" transform="translate(0,0)"/>
<path d="" fill="#EFF1F1" transform="translate(0,0)"/>
<path d="" fill="#F2F5F3" transform="translate(0,0)"/>
<path d="" fill="#EDEDEE" transform="translate(0,0)"/>
<path d="" fill="#EEEFED" transform="translate(0,0)"/>
<path d="" fill="#EAEBEC" transform="translate(0,0)"/>
<path d="" fill="#FCFCFD" transform="translate(0,0)"/>
<path d="" fill="#000000" transform="translate(0,0)"/>
<path d="" fill="#FDFEFD" transform="translate(0,0)"/>
<path d="" fill="#FDFDFD" transform="translate(0,0)"/>
<path d="" fill="#FBFCFB" transform="translate(0,0)"/>
<path d="" fill="#EBECEC" transform="translate(0,0)"/>
<path d="" fill="#FCFEFE" transform="translate(0,0)"/>
<path d="" fill="#FCFCFD" transform="translate(0,0)"/>
<path d="" fill="#FAFCFE" transform="translate(0,0)"/>
<path d="" fill="#FCFDFD" transform="translate(0,0)"/>
<path d="" fill="#FCFCFD" transform="translate(0,0)"/>
<path d="" fill="#FCFDFC" transform="translate(0,0)"/>
<path d="" fill="#FEFDFB" transform="translate(0,0)"/>
<path d="" fill="#FDFDFD" transform="translate(0,0)"/>
<path d="" fill="#FBF9FA" transform="translate(0,0)"/>
<path d="" fill="#E8EBEA" transform="translate(0,0)"/>
<path d="" fill="#FBFEFD" transform="translate(0,0)"/>
<path d="" fill="#FDFDFD" transform="translate(0,0)"/>
<path d="" fill="#FDFDFE" transform="translate(0,0)"/>
<path d="" fill="#FCFCFD" transform="translate(0,0)"/>
<path d="" fill="#FCFDFC" transform="translate(0,0)"/>
<path d="" fill="#EAEBEA" transform="translate(0,0)"/>
<path d="" fill="#FEFDFE" transform="translate(0,0)"/>
<path d="" fill="#FCFDFD" transform="translate(0,0)"/>
<path d="" fill="#FBFAFC" transform="translate(0,0)"/>
<path d="" fill="#FDFBFD" transform="translate(0,0)"/>
<path d="" fill="#FEFDFE" transform="translate(0,0)"/>
<path d="" fill="#E7E8E7" transform="translate(0,0)"/>
<path d="" fill="#F3F4F6" transform="translate(0,0)"/>
<path d="" fill="#F2F4F3" transform="translate(0,0)"/>
<path d="" fill="#FBFBFA" transform="translate(0,0)"/>
<path d="" fill="#E6E6E5" transform="translate(0,0)"/>
<path d="" fill="#E3E4E3" transform="translate(0,0)"/>
<path d="" fill="#FBFCFC" transform="translate(0,0)"/>
<path d="" fill="#F1F1F2" transform="translate(0,0)"/>
<path d="" fill="#EFEFF1" transform="translate(0,0)"/>
<path d="" fill="#EAEAEB" transform="translate(0,0)"/>
<path d="" fill="#FBFBFB" transform="translate(0,0)"/>
<path d="" fill="#E9EBEA" transform="translate(0,0)"/>
<path d="" fill="#FAFDFC" transform="translate(0,0)"/>
<path d="" fill="#E6E6E7" transform="translate(0,0)"/>
<path d="" fill="#E5E4E3" transform="translate(0,0)"/>
<path d="" fill="#E6E8E9" transform="translate(0,0)"/>
<path d="" fill="#FDFDFC" transform="translate(0,0)"/>
<path d="" fill="#FCFCFD" transform="translate(0,0)"/>
<path d="" fill="#E5E6E7" transform="translate(0,0)"/>
<path d="" fill="#FAFDFC" transform="translate(0,0)"/>
<path d="" fill="#E4E6E6" transform="translate(0,0)"/>
<path d="" fill="#E9E8E9" transform="translate(0,0)"/>
<path d="" fill="#FFFEFF" transform="translate(0,0)"/>
<path d="" fill="#E8E9E9" transform="translate(0,0)"/>
<path d="" fill="#FAFCFC" transform="translate(0,0)"/>
<path d="" fill="#FBFCFD" transform="translate(0,0)"/>
<path d="" fill="#FDFDFE" transform="translate(0,0)"/>
<path d="" fill="#E8E9E9" transform="translate(0,0)"/>
<path d="" fill="#FBFCFC" transform="translate(0,0)"/>
<path d="" fill="#FAFCFD" transform="translate(0,0)"/>
<path d="" fill="#FAFBFB" transform="translate(0,0)"/>
<path d="" fill="#E9E8EB" transform="translate(0,0)"/>
<path d="" fill="#FDFEFD" transform="translate(0,0)"/>
<path d="" fill="#FEFEFC" transform="translate(0,0)"/>
<path d="" fill="#E5E5E5" transform="translate(0,0)"/>
<path d="" fill="#000000" transform="translate(0,0)"/>
<path d="" fill="#FEFDFE" transform="translate(0,0)"/>
<path d="" fill="#FEFEFE" transform="translate(0,0)"/>
<path d="" fill="#EAEBEC" transform="translate(0,0)"/>
<path d="" fill="#EBEBEB" transform="translate(0,0)"/>
<path d="" fill="#FFFFFE" transform="translate(0,0)"/>
<path d="" fill="#EBEDEE" transform="translate(0,0)"/>
<path d="" fill="#EBEEED" transform="translate(0,0)"/>
<path d="" fill="#E6E7E9" transform="translate(0,0)"/>
<path d="" fill="#FEFEFD" transform="translate(0,0)"/>
<path d="" fill="#FCFCFC" transform="translate(0,0)"/>
<path d="" fill="#EAEBED" transform="translate(0,0)"/>
<path d="" fill="#EBEEED" transform="translate(0,0)"/>
<path d="" fill="#FBFBFD" transform="translate(0,0)"/>
<path d="" fill="#EAEAEA" transform="translate(0,0)"/>
<path d="" fill="#FCFCFD" transform="translate(0,0)"/>
<path d="" fill="#FEFEFE" transform="translate(0,0)"/>
<path d="" fill="#FAFCFD" transform="translate(0,0)"/>
<path d="" fill="#E9E9EA" transform="translate(0,0)"/>
<path d="" fill="#FDFDFF" transform="translate(0,0)"/>
<path d="" fill="#FEFCFC" transform="translate(0,0)"/>
<path d="" fill="#E6E7E8" transform="translate(0,0)"/>
<path d="" fill="#E7E8E8" transform="translate(0,0)"/>
<path d="" fill="#FDFEFD" transform="translate(0,0)"/>
<path d="" fill="#E9E6E6" transform="translate(0,0)"/>
<path d="" fill="#F9F9FA" transform="translate(0,0)"/>
<path d="" fill="#E6E7E9" transform="translate(0,0)"/>
<path d="" fill="#D9D8DA" transform="translate(0,0)"/>
<path d="" fill="#FCFDFF" transform="translate(0,0)"/>
<path d="" fill="#E3E3E4" transform="translate(0,0)"/>
<path d="" fill="#FBFCFC" transform="translate(0,0)"/>
<path d="" fill="#FBFBFB" transform="translate(0,0)"/>
<path d="" fill="#FAFCFC" transform="translate(0,0)"/>
<path d="" fill="#FBFBFC" transform="translate(0,0)"/>
<path d="" fill="#FAFCFD" transform="translate(0,0)"/>
<path d="" fill="#FBFCFD" transform="translate(0,0)"/>
<path d="" fill="#FCFDFC" transform="translate(0,0)"/>
<path d="" fill="#FBFDFC" transform="translate(0,0)"/>
<path d="" fill="#FCFCFB" transform="translate(0,0)"/>
<path d="" fill="#FBFCFB" transform="translate(0,0)"/>
<path d="" fill="#FBFCFC" transform="translate(0,0)"/>
<path d="" fill="#FBFCFC" transform="translate(0,0)"/>
<path d="" fill="#FBFBFB" transform="translate(0,0)"/>
<path d="" fill="#FBFBFB" transform="translate(0,0)"/>
<path d="" fill="#FBFAFB" transform="translate(0,0)"/>
<path d="" fill="#FBFCFC" transform="translate(0,0)"/>
<path d="" fill="#FBFCFD" transform="translate(0,0)"/>
<path d="" fill="#FCFBFB" transform="translate(0,0)"/>
<path d="" fill="#FAFCFC" transform="translate(0,0)"/>
<path d="" fill="#FBFBFB" transform="translate(0,0)"/>
<path d="" fill="#FBFCFB" transform="translate(0,0)"/>
<path d="" fill="#FBFAFA" transform="translate(0,0)"/>
<path d="" fill="#FAFBFC" transform="translate(0,0)"/>
<path d="" fill="#FAFCFB" transform="translate(0,0)"/>
<path d="" fill="#FAFBFB" transform="translate(0,0)"/>
<path d="" fill="#FBFCFB" transform="translate(0,0)"/>
<path d="" fill="#FAFBFC" transform="translate(0,0)"/>
<path d="" fill="#FAFBFC" transform="translate(0,0)"/>
<path d="" fill="#FBFDFD" transform="translate(0,0)"/>
<path d="" fill="#FCFCFC" transform="translate(0,0)"/>
<path d="" fill="#FBFDFD" transform="translate(0,0)"/>
<path d="" fill="#FCFCFC" transform="translate(0,0)"/>
<path d="" fill="#FBFDFC" transform="translate(0,0)"/>
<path d="" fill="#FDFFFD" transform="translate(0,0)"/>
<path d="" fill="#FDFCFD" transform="translate(0,0)"/>
<path d="" fill="#FDFEFF" transform="translate(0,0)"/>
<path d="" fill="#FDFEFE" transform="translate(0,0)"/>
<path d="" fill="#FEFFFF" transform="translate(0,0)"/>
<path d="" fill="#FDFFFF" transform="translate(0,0)"/>
<path d="" fill="#FDFFFE" transform="translate(0,0)"/>
<path d="" fill="#FEFEFF" transform="translate(0,0)"/>
<path d="" fill="#FDFEFF" transform="translate(0,0)"/>
<path d="" fill="#FDFEFD" transform="translate(0,0)"/>
<path d="" fill="#FEFEFF" transform="translate(0,0)"/>
<path d="" fill="#FEFEFF" transform="translate(0,0)"/>
<path d="" fill="#FEFDFE" transform="translate(0,0)"/>
<path d="" fill="#FEFEFF" transform="translate(0,0)"/>
<path d="" fill="#FDFEFF" transform="translate(0,0)"/>
<path d="" fill="#FEFEFE" transform="translate(0,0)"/>
<path d="" fill="#FDFFFF" transform="translate(0,0)"/>
<path d="" fill="#FEFEFE" transform="translate(0,0)"/>
<path d="" fill="#FDFDFD" transform="translate(0,0)"/>
<path d="" fill="#FDFEFE" transform="translate(0,0)"/>
<path d="" fill="#FDFEFE" transform="translate(0,0)"/>
<path d="" fill="#FEFDFD" transform="translate(0,0)"/>
<path d="" fill="#FCFAFB" transform="translate(0,0)"/>
<path d="" fill="#F9FCFB" transform="translate(0,0)"/>
<path d="" fill="#F9F8F9" transform="translate(0,0)"/>
<path d="" fill="#E5E4E6" transform="translate(0,0)"/>
<path d="" fill="#E1E1E2" transform="translate(0,0)"/>
<path d="" fill="#D9D9D9" transform="translate(0,0)"/>
<path d="" fill="#FDFCFD" transform="translate(0,0)"/>
<path d="" fill="#FDFDFD" transform="translate(0,0)"/>
<path d="" fill="#FCFCFB" transform="translate(0,0)"/>
<path d="" fill="#FAFDFE" transform="translate(0,0)"/>
<path d="" fill="#FEFEFE" transform="translate(0,0)"/>
<path d="" fill="#FCFBFC" transform="translate(0,0)"/>
<path d="" fill="#FDFBFD" transform="translate(0,0)"/>
<path d="" fill="#FBFAFB" transform="translate(0,0)"/>
<path d="" fill="#F8F8FA" transform="translate(0,0)"/>
<path d="" fill="#FCFCFD" transform="translate(0,0)"/>
<path d="" fill="#FBFCFD" transform="translate(0,0)"/>
<path d="" fill="#FBFCFC" transform="translate(0,0)"/>
<path d="" fill="#FAF7F6" transform="translate(0,0)"/>
<path d="" fill="#F8F7F7" transform="translate(0,0)"/>
<path d="" fill="#F8F7F5" transform="translate(0,0)"/>
<path d="" fill="#F2F2F3" transform="translate(0,0)"/>
<path d="" fill="#F4F2F3" transform="translate(0,0)"/>
<path d="" fill="#E6E6E5" transform="translate(0,0)"/>
<path d="" fill="#FAFCFD" transform="translate(0,0)"/>
<path d="" fill="#FBFCFE" transform="translate(0,0)"/>
<path d="" fill="#E6E8E8" transform="translate(0,0)"/>
<path d="" fill="#E6E7E7" transform="translate(0,0)"/>
<path d="" fill="#F1F3F3" transform="translate(0,0)"/>
<path d="" fill="#FBFBFB" transform="translate(0,0)"/>
<path d="" fill="#E0E1E3" transform="translate(0,0)"/>
<path d="" fill="#FAFBFB" transform="translate(0,0)"/>
<path d="" fill="#F8F9FA" transform="translate(0,0)"/>
<path d="" fill="#FDFCFC" transform="translate(0,0)"/>
<path d="" fill="#FEFBFD" transform="translate(0,0)"/>
<path d="" fill="#F9FAFB" transform="translate(0,0)"/>
<path d="" fill="#F9FBFC" transform="translate(0,0)"/>
<path d="" fill="#F9FAFA" transform="translate(0,0)"/>
<path d="" fill="#E7E7E9" transform="translate(0,0)"/>
<path d="" fill="#F7F8F9" transform="translate(0,0)"/>
<path d="" fill="#FCFCFB" transform="translate(0,0)"/>
<path d="" fill="#FDFCFD" transform="translate(0,0)"/>
<path d="" fill="#F8FAFA" transform="translate(0,0)"/>
<path d="" fill="#F8FAFB" transform="translate(0,0)"/>
<path d="" fill="#FAFAF9" transform="translate(0,0)"/>
<path d="" fill="#FCFEFE" transform="translate(0,0)"/>
<path d="" fill="#FCFCFA" transform="translate(0,0)"/>
<path d="" fill="#E3E3E4" transform="translate(0,0)"/>
<path d="" fill="#F9FAFB" transform="translate(0,0)"/>
<path d="" fill="#FBFBFA" transform="translate(0,0)"/>
<path d="" fill="#FCFCFC" transform="translate(0,0)"/>
<path d="" fill="#E1E2E0" transform="translate(0,0)"/>
<path d="" fill="#E5E7E6" transform="translate(0,0)"/>
<path d="" fill="#FCFBFC" transform="translate(0,0)"/>
<path d="" fill="#FDFEFE" transform="translate(0,0)"/>
<path d="" fill="#E0E3E3" transform="translate(0,0)"/>
<path d="" fill="#FBFCFD" transform="translate(0,0)"/>
<path d="" fill="#E3E3E4" transform="translate(0,0)"/>
<path d="" fill="#E6EAE8" transform="translate(0,0)"/>
<path d="" fill="#E7E9E7" transform="translate(0,0)"/>
<path d="" fill="#E3E5E4" transform="translate(0,0)"/>
<path d="" fill="#000000" transform="translate(0,0)"/>
<path d="" fill="#EBEDEC" transform="translate(0,0)"/>
<path d="" fill="#E9E6E9" transform="translate(0,0)"/>
<path d="" fill="#ECEBEA" transform="translate(0,0)"/>
<path d="" fill="#EBEAEC" transform="translate(0,0)"/>
<path d="" fill="#EEEFED" transform="translate(0,0)"/>
<path d="" fill="#F2F4F5" transform="translate(0,0)"/>
<path d="" fill="#EDEFF0" transform="translate(0,0)"/>
<path d="" fill="#F4F4F3" transform="translate(0,0)"/>
<path d="" fill="#F1F2F2" transform="translate(0,0)"/>
<path d="" fill="#F0F1F0" transform="translate(0,0)"/>
<path d="" fill="#F5F6F6" transform="translate(0,0)"/>
<path d="" fill="#FBFBFA" transform="translate(0,0)"/>
<path d="" fill="#FAFBFA" transform="translate(0,0)"/>
<path d="" fill="#F9FBF9" transform="translate(0,0)"/>
<path d="" fill="#FBFCFC" transform="translate(0,0)"/>
<path d="" fill="#FBFCFC" transform="translate(0,0)"/>
<path d="" fill="#FBFDFC" transform="translate(0,0)"/>
<path d="" fill="#FCFDFB" transform="translate(0,0)"/>
<path d="" fill="#FCFDFC" transform="translate(0,0)"/>
</svg>
