<!DOCTYPE svg PUBLIC "-//W3C//DTD SVG 1.1//EN" "http://www.w3.org/Graphics/SVG/1.1/DTD/svg11.dtd">
<!-- Uploaded to: SVG Repo, www.svgrepo.com, Transformed by: SVG Repo Mixer Tools -->
<svg fill="#ffffff" width="800px" height="800px" viewBox="0 0 512 512" id="_03_In" data-name="03 In" xmlns="http://www.w3.org/2000/svg" stroke="#ffffff">
<g id="SVGRepo_bgCarrier" stroke-width="0"/>
<g id="SVGRepo_tracerCarrier" stroke-linecap="round" stroke-linejoin="round"/>
<g id="SVGRepo_iconCarrier"> <path id="Path_4" data-name="Path 4" d="M480,224a31.991,31.991,0,0,0-32,32V448H64V256a32,32,0,0,0-64,0V480a31.991,31.991,0,0,0,32,32H480a31.991,31.991,0,0,0,32-32V256A31.991,31.991,0,0,0,480,224Z" fill-rule="evenodd"/> <path id="Path_5" data-name="Path 5" d="M288,224V28.091C288,12.578,273.688,0,256,0s-32,12.578-32,28.091V224H128L256,352,384,224Z" fill-rule="evenodd"/> </g>
</svg>